HIERARCHY
ROOT Hips
{
	OFFSET 0.000000 0.000000 0.000000
	CHANNELS 6 Xposition Yposition Zposition Zrotation Yrotation Xrotation 
	JOINT LowerBack
	{
		OFFSET 0.000000 0.000000 0.000000
		CHANNELS 3 Zrotation Yrotation Xrotation
		JOINT Spine
		{
			OFFSET 0.028270 2.035590 -0.193380
			CHANNELS 3 Zrotation Yrotation Xrotation
			JOINT Spine1
			{
				OFFSET 0.056720 2.048850 -0.042750
				CHANNELS 3 Zrotation Yrotation Xrotation
				JOINT Neck
				{
					OFFSET 0.000000 0.000000 0.000000
					CHANNELS 3 Zrotation Yrotation Xrotation
					JOINT Neck1
					{
						OFFSET -0.054170 1.746240 0.172020
						CHANNELS 3 Zrotation Yrotation Xrotation
						JOINT Head
						{
							OFFSET 0.104070 1.761360 -0.123970
							CHANNELS 3 Zrotation Yrotation Xrotation
							End Site
							{
								OFFSET 0.000000 0.000000 0.000000
							}
						}
					}
				}
				JOINT LeftShoulder
				{
					OFFSET 0.000000 0.000000 0.000000
					CHANNELS 3 Zrotation Yrotation Xrotation
					JOINT LeftArm
					{
						OFFSET 3.362410 1.200890 -0.311210
						CHANNELS 3 Zrotation Yrotation Xrotation
						JOINT LeftForeArm
						{
							OFFSET 4.983000 -0.000000 -0.000000
							CHANNELS 3 Zrotation Yrotation Xrotation
							JOINT LeftHand
							{
								OFFSET 3.483560 -0.000000 -0.000000
								CHANNELS 3 Zrotation Yrotation Xrotation
								JOINT LeftFingerBase
								{
									OFFSET 0.000000 0.000000 0.000000
									CHANNELS 3 Zrotation Yrotation Xrotation
									JOINT LeftHandIndex1
									{
										OFFSET 0.715260 -0.000000 -0.000000
										CHANNELS 3 Zrotation Yrotation Xrotation
										End Site
										{
											OFFSET 0.000000 0.000000 0.000000
										}
									}
								}
								JOINT LThumb
								{
									OFFSET 0.000000 0.000000 0.000000
									CHANNELS 3 Zrotation Yrotation Xrotation
									End Site
									{
										OFFSET 0.000000 0.000000 0.000000
									}
								}
							}
						}
					}
				}
				JOINT RightShoulder
				{
					OFFSET 0.000000 0.000000 0.000000
					CHANNELS 3 Zrotation Yrotation Xrotation
					JOINT RightArm
					{
						OFFSET -3.136600 1.374050 -0.404650
						CHANNELS 3 Zrotation Yrotation Xrotation
						JOINT RightForeArm
						{
							OFFSET -5.241900 -0.000000 -0.000000
							CHANNELS 3 Zrotation Yrotation Xrotation
							JOINT RightHand
							{
								OFFSET -3.444170 -0.000000 -0.000000
								CHANNELS 3 Zrotation Yrotation Xrotation
								JOINT RightFingerBase
								{
									OFFSET 0.000000 0.000000 0.000000
									CHANNELS 3 Zrotation Yrotation Xrotation
									JOINT RightHandIndex1
									{
										OFFSET -0.622530 -0.000000 -0.000000
										CHANNELS 3 Zrotation Yrotation Xrotation
										End Site
										{
											OFFSET 0.000000 0.000000 0.000000
										}
									}
								}
								JOINT RThumb
								{
									OFFSET 0.000000 0.000000 0.000000
									CHANNELS 3 Zrotation Yrotation Xrotation
									End Site
									{
										OFFSET 0.000000 0.000000 0.000000
									}
								}
							}
						}
					}
				}
			}
		}
	}
}
}
MOTION
Frames: 14
Frame Time: 0.008333
-5.729773 17.434755 1.174040 101.170887 -84.464680 -90.088751 -2.150935 -3.705550 -5.647722 -1.033497 -3.720570 -3.598974 -6.712257 -3.764220 1.580203 10.882785 -13.738553 -9.605997 -3.607886 -0.260583 -0.498065 0.000000 0.000000 0.000000 -2.939033 9.813387 0.567811 -63.773091 -8.143485 19.752236 -2.107892 -53.032890 -0.012658 5.977976 0.413114 0.016078 -0.137464 0.142182 0.000000 0.000000 0.000000 0.000000 0.000000 0.000000 0.000000 18.940794 -11.242097 0.605926 70.353492 -3.783498 -3.011628 3.341447 25.775167 0.008014 -1.649931 4.643472 -0.071722 0.107814 -0.064965 -0.000000 0.000000 0.000000 0.000000 0.000000 0.000000 0.000000 
-5.863081 17.422328 1.146787 100.006619 -84.375947 -88.964395 -2.306764 -3.966571 -5.571598 -1.035315 -3.961977 -3.574350 -6.668845 -4.004757 1.573256 10.901075 -14.147936 -9.590357 -3.570679 -0.257229 -0.491292 0.000000 0.000000 0.000000 -2.514004 8.989379 0.579805 -63.281378 -8.796654 19.828750 -2.074679 -53.692890 -0.013416 5.967913 0.338734 0.011522 -0.138420 0.152213 0.000000 0.000000 0.000000 0.000000 0.000000 0.000000 0.000000 18.826150 -11.875800 0.642909 70.088928 -4.245625 -3.015390 3.342079 26.005610 0.007854 -1.474012 4.438225 -0.061539 0.107510 -0.061692 -0.000000 0.000000 0.000000 0.000000 0.000000 0.000000 0.000000 
-5.998092 17.408835 1.119701 99.242429 -84.291729 -88.239547 -2.458276 -4.218418 -5.502514 -1.036771 -4.194863 -3.550162 -6.622723 -4.236678 1.571191 10.920087 -14.560027 -9.578927 -3.529745 -0.253555 -0.485590 0.000000 0.000000 0.000000 -2.094302 8.209350 0.587743 -62.773404 -9.428836 19.818342 -2.041260 -54.317490 -0.014171 5.957568 0.277996 0.007861 -0.139058 0.161883 0.000000 0.000000 0.000000 0.000000 0.000000 0.000000 0.000000 18.698422 -12.501290 0.675951 69.817359 -4.694142 -3.020081 3.340946 26.270363 0.007699 -1.316735 4.249149 -0.053054 0.107368 -0.058653 -0.000000 0.000000 0.000000 0.000000 0.000000 0.000000 0.000000 
-6.135263 17.394484 1.092949 98.861137 -84.215574 -87.891498 -2.600652 -4.460421 -5.449243 -1.036932 -4.419119 -3.528618 -6.574178 -4.459993 1.572344 10.937877 -14.969776 -9.569689 -3.486147 -0.249695 -0.480314 0.000000 0.000000 0.000000 -1.687921 7.470767 0.591841 -62.249774 -10.025166 19.722899 -2.007196 -54.912442 -0.014932 5.948372 0.236512 0.005195 -0.139349 0.171106 0.000000 0.000000 0.000000 0.000000 0.000000 0.000000 0.000000 18.558834 -13.112241 0.704581 69.534735 -5.141546 -3.036227 3.338397 26.583663 0.007553 -1.169839 4.074939 -0.045567 0.107346 -0.055848 -0.000000 0.000000 0.000000 0.000000 0.000000 0.000000 0.000000 
-6.274967 17.379558 1.066714 98.847869 -84.149539 -87.902394 -2.729219 -4.692510 -5.414770 -1.034698 -4.635071 -3.509421 -6.523166 -4.674946 1.580343 10.955133 -15.385537 -9.567451 -3.439844 -0.245587 -0.476783 0.000000 0.000000 0.000000 -1.306616 6.792525 0.592339 -61.711331 -10.603403 19.561471 -1.973697 -55.468912 -0.015707 5.942791 0.215739 0.003627 -0.139427 0.179837 0.000000 0.000000 0.000000 0.000000 0.000000 0.000000 0.000000 18.412551 -13.716590 0.726858 69.230419 -5.578841 -3.044196 3.334403 26.954613 0.007413 -1.032501 3.910739 -0.038878 0.107467 -0.053235 -0.000000 0.000000 0.000000 0.000000 0.000000 0.000000 0.000000 
-6.417567 17.364280 1.041102 99.162057 -84.097602 -88.227829 -2.838510 -4.914082 -5.406394 -1.029096 -4.842651 -3.495374 -6.470659 -4.881675 1.590141 10.969097 -15.792859 -9.565643 -3.393127 -0.241517 -0.473109 0.000000 0.000000 0.000000 -0.954081 6.157629 0.590205 -61.161835 -11.136389 19.327862 -1.940101 -55.997086 -0.016495 5.940014 0.217036 0.003254 -0.139204 0.188035 0.000000 0.000000 0.000000 0.000000 0.000000 0.000000 0.000000 18.261359 -14.299031 0.743332 68.903495 -6.028962 -3.071737 3.329434 27.396816 0.007283 -0.890719 3.754840 -0.032688 0.107634 -0.050824 -0.000000 0.000000 0.000000 0.000000 0.000000 0.000000 0.000000 
-6.563245 17.348885 1.016193 99.767380 -84.062266 -88.830297 -2.924044 -5.125189 -5.425597 -1.019033 -5.042254 -3.486203 -6.416864 -5.080525 1.604366 10.980691 -16.197383 -9.567370 -3.346332 -0.237470 -0.470147 0.000000 0.000000 0.000000 -0.638238 5.579153 0.585862 -60.604968 -11.640071 19.039039 -1.907731 -56.487005 -0.017294 5.942017 0.237008 0.003979 -0.138802 0.195705 0.000000 0.000000 0.000000 0.000000 0.000000 0.000000 0.000000 18.110934 -14.865581 0.752430 68.545494 -6.483802 -3.102681 3.323513 27.911118 0.007161 -0.744183 3.605081 -0.026695 0.107856 -0.048570 -0.000000 0.000000 0.000000 0.000000 0.000000 0.000000 0.000000 
-6.711989 17.333582 0.992103 100.657720 -84.043081 -89.708474 -2.984342 -5.325567 -5.465237 -1.003986 -5.233551 -3.478942 -6.361332 -5.270934 1.629024 10.992504 -16.615235 -9.580072 -3.298454 -0.233247 -0.470059 0.000000 0.000000 0.000000 -0.366482 5.082562 0.579477 -60.046443 -12.153166 18.720162 -1.878722 -56.917411 -0.018100 5.951196 0.268789 0.005301 -0.138427 0.202884 0.000000 0.000000 0.000000 0.000000 0.000000 0.000000 0.000000 17.966975 -15.433741 0.752050 68.144394 -6.914088 -3.089864 3.316292 28.482722 0.007055 -0.606599 3.468605 -0.021401 0.108228 -0.046437 -0.000000 0.000000 0.000000 0.000000 0.000000 0.000000 0.000000 
-6.863971 17.318521 0.968743 101.781772 -84.041980 -90.809696 -3.017519 -5.515247 -5.527963 -0.983610 -5.416774 -3.475628 -6.304785 -5.453369 1.658747 11.002381 -17.031383 -9.596332 -3.251542 -0.229115 -0.470759 0.000000 0.000000 0.000000 -0.135047 4.645884 0.571740 -59.495242 -12.649026 18.362453 -1.852655 -57.294632 -0.018897 5.966749 0.303842 0.006821 -0.137980 0.209633 -0.000000 0.000000 0.000000 0.000000 0.000000 0.000000 0.000000 17.830197 -15.988908 0.743503 67.706323 -7.338996 -3.070628 3.308139 29.113644 0.006959 -0.464380 3.339305 -0.016405 0.108636 -0.044428 -0.000000 0.000000 0.000000 0.000000 0.000000 0.000000 0.000000 
-7.018769 17.303795 0.946054 103.119496 -84.056625 -92.124281 -3.026108 -5.693878 -5.604822 -0.958577 -5.591218 -3.474930 -6.247538 -5.627117 1.691536 11.010598 -17.439212 -9.613817 -3.206368 -0.225150 -0.471731 0.000000 0.000000 0.000000 0.060129 4.265215 0.563297 -58.960998 -13.130570 17.970466 -1.830203 -57.610637 -0.019674 5.989344 0.332246 0.008041 -0.137489 0.216035 -0.000000 0.000000 0.000000 0.000000 0.000000 0.000000 0.000000 17.702690 -16.524650 0.727293 67.235378 -7.759829 -3.054461 3.298726 29.796209 0.006871 -0.317069 3.218073 -0.011607 0.109036 -0.042551 -0.000000 0.000000 0.000000 0.000000 0.000000 0.000000 0.000000 
-7.176436 17.289453 0.923904 104.643406 -84.084244 -93.626441 -3.014062 -5.861998 -5.689624 -0.929386 -5.757023 -3.474999 -6.188556 -5.792295 1.730154 11.018291 -17.848429 -9.635489 -3.161664 -0.221195 -0.473849 0.000000 0.000000 0.000000 0.222866 3.945955 0.553364 -58.455228 -13.611855 17.555072 -1.812263 -57.852822 -0.020421 6.020417 0.343980 0.008460 -0.137018 0.222168 -0.000000 0.000000 0.000000 0.000000 0.000000 0.000000 0.000000 17.583458 -17.053101 0.703429 66.732933 -8.155614 -3.021687 3.287981 30.505819 0.006797 -0.175803 3.110816 -0.007308 0.109494 -0.040801 -0.000000 0.000000 0.000000 0.000000 0.000000 0.000000 0.000000 
-7.336535 17.275447 0.902122 106.319334 -84.120003 -95.291932 -2.988103 -6.019805 -5.774557 -0.897786 -5.913743 -3.475930 -6.128564 -5.948618 1.767710 11.024093 -18.238140 -9.653069 -3.119155 -0.217489 -0.474943 0.000000 0.000000 0.000000 0.365051 3.664591 0.542580 -57.989433 -14.069111 17.107563 -1.798301 -58.025057 -0.021132 6.059558 0.331514 0.007478 -0.136475 0.228104 -0.000000 0.000000 0.000000 0.000000 0.000000 0.000000 0.000000 17.471171 -17.552839 0.674280 66.214962 -8.549277 -3.019306 3.275692 31.241671 0.006732 -0.029611 3.011696 -0.003210 0.109878 -0.039212 -0.000000 0.000000 0.000000 0.000000 0.000000 0.000000 0.000000 
-7.498744 17.261722 0.880689 108.130170 -84.159209 -97.111377 -2.953983 -6.167840 -5.849014 -0.864609 -6.061317 -3.474668 -6.065811 -6.095949 1.807979 11.029432 -18.623238 -9.671968 -3.076419 -0.213741 -0.476603 0.000000 0.000000 0.000000 0.490721 3.431255 0.529820 -57.574279 -14.523606 16.641079 -1.789063 -58.113407 -0.021803 6.108386 0.288800 0.004894 -0.135937 0.233896 -0.000000 0.000000 0.000000 0.000000 0.000000 0.000000 0.000000 17.361986 -18.041068 0.640135 65.683616 -8.909895 -3.012773 3.261587 31.973318 0.006685 0.101723 2.931003 0.000290 0.110305 -0.037799 -0.000000 0.000000 0.000000 0.000000 0.000000 0.000000 0.000000 
-7.662967 17.248234 0.859467 110.047809 -84.197286 -99.059034 -2.917696 -6.306678 -5.907450 -0.831120 -6.199790 -3.470696 -6.000041 -6.234440 1.848593 11.033670 -18.997796 -9.689781 -3.033208 -0.209952 -0.478235 0.000000 0.000000 0.000000 0.608069 3.234586 0.514978 -57.219376 -14.965220 16.155036 -1.784199 -58.119714 -0.022437 6.165944 0.214546 0.000509 -0.135366 0.239552 -0.000000 0.000000 0.000000 0.000000 0.000000 0.000000 0.000000 17.251607 -18.512505 0.602941 65.150076 -9.240390 -3.016130 3.245615 32.690439 0.006658 0.217282 2.867908 0.003190 0.110760 -0.036588 -0.000000 0.000000 0.000000 0.000000 0.000000 0.000000 0.000000 
